<?xml version="1.0" encoding="UTF-8" standalone="no"?>
<svg
   xmlns:dc="http://purl.org/dc/elements/1.1/"
   xmlns:cc="http://creativecommons.org/ns#"
   xmlns:rdf="http://www.w3.org/1999/02/22-rdf-syntax-ns#"
   xmlns:svg="http://www.w3.org/2000/svg"
   xmlns="http://www.w3.org/2000/svg"
   preserveAspectRatio="none"
   viewBox="0 0 650 330"
   version="1.1"
   id="svg4138">
  <metadata
     id="metadata4144">
    <rdf:RDF>
      <cc:Work
         rdf:about="">
        <dc:format>image/svg+xml</dc:format>
        <dc:type
           rdf:resource="http://purl.org/dc/dcmitype/StillImage" />
        <dc:title></dc:title>
      </cc:Work>
    </rdf:RDF>
  </metadata>
  <defs
     id="defs4142" />
  <path
     style="fill:#ff0000"
     d="M 0,165 0,0 69.16667,0 c 38.04166,0 68.86521,0.30145 68.49678,0.66989 C 137.29501,1.03833 114.83251,1.66773 87.74678,2.06856 35.61148,2.8401 31.34025,3.2169 20.1468,8.03219 13.08769,11.06894 6.52153,18.31758 4.64564,25.14451 2.81132,31.82017 1.51529,75.47413 1.64395,126.25 c 0.0498,19.6625 0.0759,55.21251 0.0579,79.00001 -0.0661,87.44842 -0.16114,83.43992 2.18732,92.25 1.17288,4.4 3.36513,10.475 4.87167,13.5 4.4292,8.89346 12.70308,12.81715 31.73916,15.05157 6.37562,0.74835 45.30398,0.6974 133.5,-0.17472 101.38373,-1.00254 127.74927,-0.99112 142,0.0615 11.8755,0.87719 54.36413,1.50682 132.19856,1.95903 63.08421,0.36651 115.02171,0.98953 115.41667,1.38449 0.39495,0.39498 -126.2569,0.71813 -281.44856,0.71813 L 0,330.00001 0,165 Z m 634.33106,163.54015 c 5.69089,-1.02937 7.44345,-1.84799 10.5,-4.90454 l 3.66894,-3.66893 0,-151.91002 C 648.5,16.44806 648.496,16.14106 646.44803,13.32333 643.98663,9.93667 637.34549,6.43937 630.5,4.92491 627.15333,4.18451 598.05476,3.68942 542.5,3.42765 496.85,3.21255 449.6,2.55571 437.5,1.96801 423.63244,1.29445 389.8089,1.11726 346,1.48867 307.775,1.81273 268.85,1.67947 259.5,1.19252 248.46305,0.61771 313.96892,0.25329 446.25,0.15358 L 650,0 l 0,165 0,165.00001 -11.25,-0.11213 -11.25,-0.11212 6.83106,-1.23561 z"
     id="path4692" />
</svg>
